<?xml version="1.0" encoding="utf-8"?>
<!-- Generator: Adobe Illustrator 27.8.0, SVG Export Plug-In . SVG Version: 6.00 Build 0)  -->
<svg version="1.1" id="Layer_1" xmlns="http://www.w3.org/2000/svg" xmlns:xlink="http://www.w3.org/1999/xlink" x="0px" y="0px"
	 viewBox="0 0 24 24" style="enable-background:new 0 0 24 24;" xml:space="preserve">
<style type="text/css">
	.st0{opacity:0.15;fill:#9473A5;enable-background:new    ;}
	.st1{fill:#9473A5;}
	.st2{opacity:0.6;fill:#9473A5;}
</style>
<circle id="Ellipse_698" class="st0" cx="10" cy="10" r="10"/>
<g>
	<path class="st1" d="M5.1,19C2.5,16.9,0.9,12.8,2,8.6C3.2,4.1,7,1.7,9.7,1.2C9.5,2,9.4,2.8,9.2,3.5C9.1,4.2,9.2,4.3,9.9,4.3
		c1.5,0,2.9,0,4.4,0c0.5,0,0.6-0.1,0.5-0.7c-0.2-0.8-0.3-1.6-0.5-2.4c2.8,0.1,6.4,3.4,7.6,6.8c1.4,4.1-0.1,8.5-3,10.9
		c-0.2-0.4-0.4-0.7-0.6-1.1c-0.5-0.8-0.9-1.7-1.4-2.5c-0.2-0.3-0.1-0.4,0-0.7c1.3-2,1.5-4.1,0.4-6.3c-1.1-2.1-3-3.2-5.4-3.2
		c-2.4,0-4.2,1.2-5.2,3.2c-1.1,2.1-0.9,4.2,0.4,6.1c0.2,0.3,0.2,0.6,0,0.9c-0.6,1-1.1,2.1-1.7,3.1C5.3,18.7,5.2,18.9,5.1,19z"/>
	<path class="st2" d="M18,19c-4,0-8,0-12,0c0.1-0.1,0.1-0.2,0.2-0.3c1-1.9,2.1-3.8,3.1-5.6c0.1-0.3,0.3-0.4,0.6-0.4
		c1.4,0,2.8,0,4.2,0c0.3,0,0.5,0.1,0.6,0.4c1,1.9,2,3.7,3,5.6C17.8,18.7,17.9,18.8,18,19z"/>
	<path class="st1" d="M5.8,23c0-1.1,0-2.2,0-3.3c4.2,0,8.3,0,12.5,0c0,1.1,0,2.2,0,3.3C14.1,23,9.9,23,5.8,23z"/>
	<path class="st2" d="M10,3.6c0.2-0.8,0.3-1.5,0.5-2.3c0-0.1,0.2-0.3,0.3-0.3c0.8,0,1.6,0,2.5,0c0.1,0,0.3,0.1,0.3,0.2
		C13.7,2,13.9,2.8,14,3.6C12.7,3.6,11.3,3.6,10,3.6z"/>
	<path class="st2" d="M10.7,11.9c0-0.2,0-0.4,0-0.6c0.8,0,1.7,0,2.5,0c0,0.2,0,0.4,0,0.6C12.4,11.9,11.6,11.9,10.7,11.9z"/>
</g>
</svg>
