<svg xmlns="http://www.w3.org/2000/svg" width="17" height="17" viewBox="0 0 17 17">
  <g id="blank" transform="translate(-46.929 -372.375)">
    <rect id="Rectangle_14598" data-name="Rectangle 14598" width="17" height="17" transform="translate(46.929 372.375)" fill="none"/>
    <path id="Icon_ionic-ios-star" data-name="Icon ionic-ios-star" d="M15.184,7.7H10.769l-1.341-4a.486.486,0,0,0-.912,0l-1.341,4H2.73a.482.482,0,0,0-.48.48.353.353,0,0,0,.009.081.461.461,0,0,0,.2.339l3.628,2.557L4.7,15.2a.482.482,0,0,0,.165.54.464.464,0,0,0,.27.117.588.588,0,0,0,.3-.108l3.541-2.524,3.541,2.524a.562.562,0,0,0,.3.108.431.431,0,0,0,.267-.117.476.476,0,0,0,.165-.54l-1.392-4.048,3.6-2.581.087-.075a.459.459,0,0,0-.354-.8Z" transform="translate(46.75 370)" fill="none" stroke="#d6ab36" stroke-width="1.2"/>
  </g>
</svg>
