<svg id="check" xmlns="http://www.w3.org/2000/svg" width="20.449" height="20.449" viewBox="0 0 20.449 20.449">
  <path id="Path_19772" data-name="Path 19772" d="M14.27,19.382a5.118,5.118,0,0,0,5.112-5.112V7.112A5.118,5.118,0,0,0,14.27,2H7.112A5.118,5.118,0,0,0,2,7.112V14.27a5.118,5.118,0,0,0,5.112,5.112ZM4.045,14.27V7.112A3.07,3.07,0,0,1,7.112,4.045H14.27a3.07,3.07,0,0,1,3.067,3.067V14.27a3.07,3.07,0,0,1-3.067,3.067H7.112A3.07,3.07,0,0,1,4.045,14.27Z" transform="translate(-2 -2)" fill="#7c83b5"/>
  <path id="Path_19773" data-name="Path 19773" d="M20.314,8.022v6.135a6.142,6.142,0,0,1-6.135,6.135H8.045a1.022,1.022,0,0,0,0,2.045h6.135a8.19,8.19,0,0,0,8.18-8.18V8.022a1.022,1.022,0,0,0-2.045,0ZM9.7,13.56l5.174-4.787a1.022,1.022,0,1,0-1.389-1.5l-4.328,4L7.85,9.468a1.022,1.022,0,0,0-1.656,1.2l1.984,2.742A1.022,1.022,0,0,0,9.7,13.56Z" transform="translate(-1.91 -1.888)" fill="#7c83b5"/>
</svg>
