<svg id="google" xmlns="http://www.w3.org/2000/svg" width="14.294" height="14.585" viewBox="0 0 14.294 14.585">
  <path id="Path_19213" data-name="Path 19213" d="M137.551,108.252a6.249,6.249,0,0,0-.154-1.491H130.55v2.706h4.019a3.564,3.564,0,0,1-1.491,2.366l-.014.091,2.165,1.677.15.015a7.13,7.13,0,0,0,2.172-5.364" transform="translate(-123.257 -100.797)" fill="#4285f4"/>
  <path id="Path_19214" data-name="Path 19214" d="M20.44,162.22a6.951,6.951,0,0,0,4.829-1.766l-2.3-1.783a4.316,4.316,0,0,1-2.528.729,4.39,4.39,0,0,1-4.149-3.03l-.086.007-2.251,1.742-.029.082a7.287,7.287,0,0,0,6.515,4.019" transform="translate(-13.147 -147.635)" fill="#34a853"/>
  <path id="Path_19215" data-name="Path 19215" d="M3.144,76.063A4.49,4.49,0,0,1,2.9,74.621a4.718,4.718,0,0,1,.235-1.442l0-.1L.852,71.312l-.075.035a7.277,7.277,0,0,0,0,6.547l2.366-1.831" transform="translate(0 -67.328)" fill="#fbbc05"/>
  <path id="Path_19216" data-name="Path 19216" d="M20.44,2.82a4.042,4.042,0,0,1,2.82,1.086L25.318,1.9A7.007,7.007,0,0,0,20.44,0a7.287,7.287,0,0,0-6.515,4.019L16.283,5.85A4.408,4.408,0,0,1,20.44,2.82" transform="translate(-13.147)" fill="#eb4335"/>
</svg>
