<svg xmlns="http://www.w3.org/2000/svg" width="17.829" height="13.517" viewBox="0 0 17.829 13.517">
  <g id="mail-142" transform="translate(0.3 -31.343)">
    <path id="Path_19157" data-name="Path 19157" d="M14.462,44.561H2.767A2.77,2.77,0,0,1,0,41.794V34.411a2.77,2.77,0,0,1,2.767-2.767H14.462a2.77,2.77,0,0,1,2.767,2.767v7.383A2.77,2.77,0,0,1,14.462,44.561ZM2.767,32.453A1.96,1.96,0,0,0,.809,34.411v7.383a1.96,1.96,0,0,0,1.958,1.958H14.462a1.96,1.96,0,0,0,1.958-1.958V34.411a1.96,1.96,0,0,0-1.958-1.958Z" transform="translate(0 0)" fill="#1d1d1b" stroke="#000" stroke-width="0.6"/>
    <path id="Path_19158" data-name="Path 19158" d="M29.315,63.1l6.2,6.046c.386.376.977-.215.591-.591l-6.2-6.046c-.386-.376-.977.215-.591.591Z" transform="translate(-27.201 -28.648)" fill="#1d1d1b" stroke="#000" stroke-width="0.6"/>
    <path id="Path_19159" data-name="Path 19159" d="M120.985,69.144l6.2-6.046c.386-.376-.205-.967-.591-.591l-6.2,6.046c-.386.376.205.967.591.591Z" transform="translate(-112.074 -28.648)" fill="#1d1d1b" stroke="#000" stroke-width="0.6"/>
    <path id="Path_19160" data-name="Path 19160" d="M155.213,127.352l-4.129-3.915c-.39-.37-.982.22-.591.591l4.129,3.915c.39.37.982-.22.591-.591Z" transform="translate(-140.121 -85.43)" fill="#1d1d1b" stroke="#000" stroke-width="0.6"/>
    <path id="Path_19161" data-name="Path 19161" d="M30.752,127.939l4.129-3.915c.391-.371-.2-.961-.591-.591l-4.129,3.915c-.391.371.2.962.591.591Z" transform="translate(-27.987 -85.427)" fill="#1d1d1b" stroke="#000" stroke-width="0.6"/>
  </g>
</svg>
