<svg id="Group_22253" data-name="Group 22253" xmlns="http://www.w3.org/2000/svg" width="16" height="16" viewBox="0 0 16 16">
  <g id="Group_22252" data-name="Group 22252">
    <g id="call" transform="translate(0 0)">
      <path id="Path_10558" data-name="Path 10558" d="M15.933,10.474a.773.773,0,0,0-.534-.354l-4.882-.783a.768.768,0,0,0-.635.185,4,4,0,0,0-.923,1.189A7.2,7.2,0,0,1,6.29,8.041a4,4,0,0,0,1.189-.924.774.774,0,0,0,.184-.635L6.88,1.6a.774.774,0,0,0-.355-.534A3.439,3.439,0,0,0,5.414.616,3.589,3.589,0,0,0,4.487.5,3.991,3.991,0,0,0,.5,4.487,12.026,12.026,0,0,0,12.513,16.5,3.991,3.991,0,0,0,16.5,12.513a3.443,3.443,0,0,0-.107-.883,3.509,3.509,0,0,0-.459-1.156Zm-3.42,4.478A10.476,10.476,0,0,1,2.048,4.487,2.441,2.441,0,0,1,4.487,2.048a2.165,2.165,0,0,1,.569.075,2.1,2.1,0,0,1,.357.107l.659,4.105a2.343,2.343,0,0,1-1.025.518A.774.774,0,0,0,4.5,7.912,8.714,8.714,0,0,0,9.088,12.5a.774.774,0,0,0,1.059-.546,2.347,2.347,0,0,1,.517-1.025l4.1.659a2.471,2.471,0,0,1,.119.4,2.044,2.044,0,0,1,.064.525,2.441,2.441,0,0,1-2.439,2.439Z" transform="translate(-0.5 -0.5)"/>
      <path id="Path_10559" data-name="Path 10559" d="M16.488,7.079a.774.774,0,1,0-.007,1.548,2.439,2.439,0,0,1,2.435,2.435.774.774,0,0,0,.774.771h0a.774.774,0,0,0,.771-.777,3.987,3.987,0,0,0-3.976-3.977Z" transform="translate(-7.86 -3.683)"/>
      <path id="Path_10560" data-name="Path 10560" d="M22.271,9.374a.774.774,0,0,0,.774-.774A5.917,5.917,0,0,0,17.126,2.68a.774.774,0,1,0,0,1.548A4.368,4.368,0,0,1,21.5,8.6a.774.774,0,0,0,.774.774Z" transform="translate(-8.17 -1.555)"/>
    </g>
  </g>
</svg>
