<svg xmlns="http://www.w3.org/2000/svg" xmlns:xlink="http://www.w3.org/1999/xlink" width="39.117" height="39.196" viewBox="0 0 39.117 39.196">
  <defs>
    <clipPath id="clip-path">
      <rect id="Rectangle_8281" data-name="Rectangle 8281" width="39.117" height="39.196" fill="#f4d7d0"/>
    </clipPath>
  </defs>
  <g id="Group_22475" data-name="Group 22475" transform="translate(0 17)">
    <g id="Group_8986" data-name="Group 8986" transform="translate(0 -17)" clip-path="url(#clip-path)">
      <g id="Group_8985" data-name="Group 8985">
        <g id="Group_8984" data-name="Group 8984" clip-path="url(#clip-path)">
          <g id="Group_8983" data-name="Group 8983" style="mix-blend-mode: multiply;isolation: isolate">
            <g id="Group_8982" data-name="Group 8982">
              <g id="Group_8981" data-name="Group 8981" clip-path="url(#clip-path)">
                <path id="Path_10545" data-name="Path 10545" d="M38.852,20.085A13.315,13.315,0,0,1,36.5,30.374a20.147,20.147,0,0,1-2.467,2.994c-4.664,4.748-11.661,7.161-18.176,5.07A23.867,23.867,0,0,1,1.973,26.066a24.954,24.954,0,0,1-1.4-3.553C-3.127,10.047,11.913,2.808,21.806.234c5.469-1.448,9.249,4.1,11.9,8.339.8,1.314,1.53,2.675,2.208,4.026s1.3,2.692,1.891,3.966a19.483,19.483,0,0,1,1.047,3.519" transform="translate(0 0)" fill="#f4d7d0"/>
              </g>
            </g>
          </g>
        </g>
      </g>
    </g>
    <g id="Layer_2" data-name="Layer 2" transform="translate(14.117 -3.815)">
      <path id="flag" d="M17.263,4.459a1.555,1.555,0,0,0-1.39-.217,6.541,6.541,0,0,1-1.885.243,7.418,7.418,0,0,1-2.719-.678A8.816,8.816,0,0,0,7.909,3a5.46,5.46,0,0,0-3.648.99A.869.869,0,0,0,4,4.616V17.766a.869.869,0,1,0,1.737,0V14.031a5.455,5.455,0,0,1,2.171-.356,7.418,7.418,0,0,1,2.719.678,8.816,8.816,0,0,0,3.361.808,6.653,6.653,0,0,0,3.04-.608,1.511,1.511,0,0,0,.869-1.346V5.7a1.537,1.537,0,0,0-.634-1.242Zm-1.1,8.608a5.49,5.49,0,0,1-2.171.356,7.262,7.262,0,0,1-2.719-.686,8.981,8.981,0,0,0-3.361-.8,8.261,8.261,0,0,0-2.171.252V5.1a5.325,5.325,0,0,1,2.171-.365,7.261,7.261,0,0,1,2.719.686,8.981,8.981,0,0,0,3.361.8,8.173,8.173,0,0,0,2.171-.261Z" transform="translate(-4 -3)"/>
    </g>
  </g>
</svg>
