<svg id="Group_22832" data-name="Group 22832" xmlns="http://www.w3.org/2000/svg" xmlns:xlink="http://www.w3.org/1999/xlink" width="39.604" height="39.685" viewBox="0 0 39.604 39.685">
  <defs>
    <clipPath id="clip-path">
      <rect id="Rectangle_8281" data-name="Rectangle 8281" width="39.604" height="39.685" fill="#cdf0e0" stroke="rgba(0,0,0,0)" stroke-width="1"/>
    </clipPath>
  </defs>
  <g id="Group_8986" data-name="Group 8986" clip-path="url(#clip-path)">
    <g id="Group_8985" data-name="Group 8985">
      <g id="Group_8984" data-name="Group 8984" clip-path="url(#clip-path)">
        <g id="Group_8983" data-name="Group 8983" style="mix-blend-mode: multiply;isolation: isolate">
          <g id="Group_8982" data-name="Group 8982">
            <g id="Group_8981" data-name="Group 8981" clip-path="url(#clip-path)">
              <path id="Path_10545" data-name="Path 10545" d="M39.337,20.335a13.481,13.481,0,0,1-2.384,10.418,20.4,20.4,0,0,1-2.5,3.032c-4.722,4.807-11.807,7.25-18.4,5.133A24.165,24.165,0,0,1,2,26.392a25.265,25.265,0,0,1-1.418-3.6C-3.166,10.172,12.062,2.843,22.078.237c5.537-1.466,9.365,4.153,12.049,8.443.81,1.33,1.55,2.708,2.236,4.076s1.318,2.725,1.915,4.015a19.725,19.725,0,0,1,1.06,3.563" transform="translate(0 0)" fill="#cdf0e0" stroke="rgba(0,0,0,0)" stroke-width="1"/>
            </g>
          </g>
        </g>
      </g>
    </g>
  </g>
  <path id="medal" d="M21.123,10.213A7.086,7.086,0,1,0,8.453,14.567V22.5a.8.8,0,0,0,1.143.713l4.44-2.051,4.471,2.051a.83.83,0,0,0,.329.07.786.786,0,0,0,.783-.783V14.567A7.047,7.047,0,0,0,21.123,10.213ZM14.075,4.732a3.89,3.89,0,1,1-.039-.039ZM14.4,19.609a.783.783,0,0,0-.658,0L10.059,21.3V16.047a7.047,7.047,0,0,0,8.034,0v5.231ZM11.186,13.2a.783.783,0,0,0,1.088.783l1.762-.783,1.762.783a.861.861,0,0,0,.313.063.784.784,0,0,0,.775-.861l-.18-1.9,1.245-1.425a.783.783,0,0,0-.415-1.284l-1.871-.423L14.686,6.51a.783.783,0,0,0-1.347,0l-.979,1.644-1.871.423a.783.783,0,0,0-.368,1.284L11.39,11.3ZM13.057,9.61a.783.783,0,0,0,.5-.368l.478-.783.478.783a.783.783,0,0,0,.5.368l.916.2-.619.7a.783.783,0,0,0-.2.587l.086.932-.853-.4a.783.783,0,0,0-.626,0l-.853.368.086-.932a.783.783,0,0,0-.2-.587l-.619-.7Z" transform="translate(5.766 6.639)"/>
</svg>
