<?xml version="1.0" encoding="utf-8"?>
<!-- Generator: Adobe Illustrator 27.3.1, SVG Export Plug-In . SVG Version: 6.00 Build 0)  -->
<svg version="1.1" id="Orthopaedics" xmlns="http://www.w3.org/2000/svg" xmlns:xlink="http://www.w3.org/1999/xlink" x="0px"
	 y="0px" viewBox="0 0 24 24" style="enable-background:new 0 0 24 24;" xml:space="preserve">
<style type="text/css">
	.st0{fill:none;}
	.st1{opacity:0.15;fill:#9473A5;}
	.st2{fill:#9473A5;}
	.st3{fill:#FFFFFF;}
	.st4{opacity:0.5;fill:#9473A5;}
	.st5{fill:#C7C4CB;}
</style>
<rect id="Rectangle_1275" class="st0" width="24" height="24"/>
<circle id="Ellipse_726" class="st1" cx="10" cy="10" r="10"/>
<path id="Path_5569" class="st2" d="M17.5,8.2H14V4.5c0,0,0,0,0,0c0-0.1,0-0.2,0-0.3c0,0,0-0.1,0-0.1c0-0.1,0-0.1,0-0.2
	c0,0,0-0.1-0.1-0.1s0-0.1-0.1-0.1s-0.1-0.1-0.1-0.1s0-0.1-0.1-0.1c0,0-0.1-0.1-0.1-0.1l-0.1,0c0,0-0.1-0.1-0.2-0.1l0,0
	c-0.1,0-0.1-0.1-0.2-0.1l0,0C12.9,3,12.8,3,12.6,3H8.4C8.2,3,8.1,3,8,3.1C8.1,3,8.2,3,8.4,3l0,0C8.2,3,8.1,3,8,3.1c0,0-0.1,0-0.1,0
	C7.5,3.2,7.2,3.6,7,4c0,0,0,0.1,0,0.1c0,0.1-0.1,0.3-0.1,0.4v3.7H3.4c-0.3,0-0.6-1.9-0.8-1.7C2.5,6.6,2.3,6.7,2.2,6.9
	C2.1,7.2,2,7.4,2,7.7v6.5c0,0.3,0.1,0.6,0.2,0.8c0.1,0.2,0.2,0.3,0.4,0.4c0.2,0.2,0.5,0.3,0.8,0.3h3.5v3.7c0,0.1,0,0.3,0.1,0.4
	c0,0,0,0.1,0,0.1c0.1,0.4,0.5,0.8,0.9,0.9l0.1,0C8.1,21,8.2,21,8.4,21l0,0c-0.1,0-0.3,0-0.4-0.1C8.1,21,8.2,21,8.4,21h4.2
	c0.1,0,0.2,0,0.2,0c0.7-0.1,1.2-0.8,1.2-1.5v-2.1l0,0v-1.7h3.5c0.8,0,1.4-0.7,1.4-1.5V9.7C19,8.9,18.3,8.3,17.5,8.2z M7.9,3.1
	c-0.1,0-0.2,0.1-0.3,0.2C7.7,3.2,7.8,3.1,7.9,3.1L7.9,3.1z M7.2,3.7C7.1,3.8,7.1,3.9,7,4C7.1,3.9,7.1,3.8,7.2,3.7z M7,4.1
	c0,0.1-0.1,0.3-0.1,0.4C6.9,4.4,7,4.2,7,4.1z M6.9,19.5c0,0.1,0,0.3,0.1,0.4C7,19.8,6.9,19.6,6.9,19.5z M7,20c0,0.1,0.1,0.2,0.2,0.3
	C7.1,20.2,7.1,20.1,7,20L7,20z M7.6,20.7c0.1,0.1,0.2,0.1,0.3,0.2C7.8,20.9,7.7,20.8,7.6,20.7L7.6,20.7z M14,4.2
	C14,4.2,14,4.1,14,4.2C14,4.1,14,4.2,14,4.2L14,4.2z M13.9,3.9c0,0,0-0.1-0.1-0.1C13.9,3.9,13.9,3.9,13.9,3.9L13.9,3.9z M13.8,3.7
	c0,0-0.1-0.1-0.1-0.1C13.7,3.6,13.8,3.7,13.8,3.7L13.8,3.7z M13.6,3.5c0,0-0.1-0.1-0.1-0.1C13.6,3.4,13.6,3.5,13.6,3.5L13.6,3.5z
	 M13.5,3.3c0,0-0.1-0.1-0.2-0.1C13.4,3.2,13.4,3.3,13.5,3.3L13.5,3.3z M13.3,3.2c-0.1,0-0.1-0.1-0.2-0.1C13.1,3.1,13.2,3.1,13.3,3.2
	L13.3,3.2z M13,3.1c-0.1,0-0.1,0-0.2-0.1C12.9,3,13,3.1,13,3.1L13,3.1z"/>
<path id="Path_5570" class="st3" d="M9.5,3l5.2,4.7c0.8,0.9,1.1,2.1,0.8,3.2c0,0.8-0.1,1.6-0.3,2.4c-0.1,1.1-0.1,2.3,0.1,3.4
	c0,0,0.1,3.3,0,4.2H9.8c0,0-0.6-4,0-5.7s0.2-2.4-1-3.1S2,7.9,2,7.9V3H9.5z"/>
<path id="Path_5570_00000078030211628155249220000016207089499664289215_" class="st4" d="M9.5,3l5.2,4.7c0.8,0.9,1.1,2.1,0.8,3.2
	c0,0.8-0.1,1.6-0.3,2.4c-0.1,1.1-0.1,2.3,0.1,3.4c0,0,0.1,3.3,0,4.2H9.8c0,0-0.6-4,0-5.7s0.2-2.4-1-3.1S2,7.9,2,7.9V3H9.5z"/>
<path id="Path_5571" class="st3" d="M4.6,3c0,0,5,3.2,5.8,4c0.7,0.6,1.5,1.1,2.3,1.4c0,0,1.9,0.8,0.5,2.7c-0.4,0.5-1.1,0.9-1.8,0.8
	c-0.3,0-0.6-0.1-0.7-0.4c-0.1-0.4,0-0.8-0.2-1.2c0-0.1-0.1-0.3-0.2-0.4c-0.2-0.4-0.5-0.8-0.9-1.1C7.1,7,4.6,5.3,2,3.8V3L4.6,3z"/>
<path id="Path_5572" class="st3" d="M14.4,21H13c-0.2-2.1-0.3-4.1-0.4-6.2c0.1-0.4,0-0.9-0.2-1.2c-0.4-0.5-1.6-0.1-1.6-1
	c0-0.2,0.2-0.4,0.4-0.4c0,0,0,0,0,0h0.1c0.3,0,0.6,0,0.9-0.1c0.4-0.1,0.7-0.3,1-0.5c0,0,0.5-0.5,0.9,0.2s0.8,1,0.6,1.7
	c-0.2,0.9-0.3,1.8-0.2,2.8v2.1"/>
<path id="Path_5573" class="st5" d="M2.6,3l6.6,4.9l0.4,0.3l0.2,0.2l0,0l0,0l0,0l0,0l0.1,0L10,8.6c0.3,0.3,0.5,0.5,0.7,0.9
	c0.1,0.1,0.1,0.2,0.1,0.2c0.1,0.2,0.2,0.3,0.2,0.5c0,0.1,0.1,0.2,0.1,0.3s0.1,0.2,0.1,0.3c0,0.1,0.1,0.2,0.1,0.2
	c0,0,0.1,0.1,0.1,0.1c0,0,0.1,0,0.1,0c0.1,0,0.2,0,0.3,0c-0.1,0-0.2,0-0.3,0c0,0-0.1,0-0.1,0c0,0-0.1-0.1-0.1-0.1
	c-0.1-0.1-0.1-0.2-0.1-0.2c0-0.1-0.1-0.2-0.1-0.3s-0.1-0.2-0.1-0.3c0-0.1-0.1-0.2-0.1-0.3c0-0.1-0.1-0.2-0.1-0.2
	c0-0.1-0.1-0.2-0.1-0.2c-0.2-0.3-0.5-0.6-0.7-0.8L9.8,8.6l-0.1,0l0,0l0,0h0l0,0L9.5,8.3L9.1,8L2.2,3H2.6z"/>
<path id="Path_5574" class="st3" d="M15,9.6c0-0.1,0-0.3-0.1-0.4c-0.1-0.2-0.2-0.4-0.3-0.5c-0.1-0.1-0.3-0.2-0.5-0.2
	c-0.1,0-0.3,0-0.3,0.2c0,0.2,0.1,0.3,0.2,0.5C14,9.3,14,9.5,14,9.6c0,0.1,0,0.2,0,0.3c0,0.2,0,0.4,0,0.6c0,0.2,0.2,0.3,0.3,0.3
	c0,0,0,0,0,0c0.2-0.1,0.4-0.2,0.5-0.5C14.9,10.2,15,9.9,15,9.6z"/>
<path id="Path_5575" class="st3" d="M12,21c0,0-0.1-5.4,0.2-6.1s0.4-1.2-0.2-1.3s-0.8-0.5-0.9-0.2s0,0.6,0.1,0.9
	c0.1,0.4,0.1,0.7,0.1,1.1c0,0.2,0.1,1.4,0.1,1.4l0.1,4.2H12z"/>
<path id="Path_5576" class="st5" d="M13.5,21l-0.2,0c0,0,0-0.1,0-0.1c0-0.1,0-0.2,0-0.3c0-0.2-0.1-0.4-0.1-0.5
	c0-0.4-0.1-0.7-0.1-1.1c-0.1-0.7-0.1-1.4-0.1-2.1s-0.1-1.4-0.1-2.1c0-0.2,0-0.4,0-0.5c0,0,0-0.1,0-0.1s0-0.1,0-0.1
	c0-0.1,0-0.2-0.1-0.3c0-0.2-0.1-0.3-0.3-0.4c-0.1-0.1-0.1-0.1-0.2-0.1c-0.1,0-0.2-0.1-0.2-0.1c0.1,0,0.2,0,0.2,0.1
	c0.1,0,0.2,0.1,0.2,0.1c0.1,0.1,0.2,0.3,0.3,0.4c0,0.1,0,0.2,0.1,0.3c0,0,0,0.1,0,0.1s0,0.1,0,0.1c0,0.2,0,0.4,0,0.5
	c0,0.7,0.1,1.4,0.1,2.1s0.1,1.4,0.2,2.1c0,0.4,0.1,0.7,0.1,1.1c0,0.2,0.1,0.3,0.1,0.5c0,0.1,0,0.2,0.1,0.3
	C13.5,20.9,13.5,20.9,13.5,21C13.5,21,13.5,21,13.5,21"/>
<path id="Path_5577" class="st3" d="M21.9,15.6C21.9,15.6,21.9,15.7,21.9,15.6c-0.2,0.1-0.3,0.1-0.4,0.1c-0.4-0.2-0.8-0.3-1.2-0.5
	c-0.1,0-0.1,0-0.2,0c-0.2,0-0.2,0.3-0.2,0.5s0,0.4-0.2,0.5c-0.1,0-0.1,0-0.2,0c-0.6-0.3-1.2-0.5-1.7-0.8c-0.2-0.1-0.4-0.3-0.2-0.5
	c0.2-0.2,0.6-0.2,0.8-0.2c0.2,0,0.3,0,0.4-0.2c0.1-0.2-0.1-0.7,0.2-0.7c0.1,0,0.2,0,0.3,0l0.5,0l0.9,0l0.9,0c0.1,0,0.2,0,0.2,0.1
	C22,13.9,22,14,22,14.2l0,1.2C22,15.4,22,15.5,21.9,15.6z"/>
<path id="Path_5578" class="st3" d="M20.2,6.3c0.1,0,0.2,0.1,0.2,0.1c0.4,0.4,0.8,0.9,1.3,1.3c0.1,0.1,0.1,0.1,0.1,0.2
	c0,0.1-0.1,0.2-0.2,0.3l-1.6,0.8c-0.1,0.1-0.2,0.1-0.2,0.3c0,0.1,0.1,0.2,0.1,0.2l0.4,0.4c0.1,0.1,0.2,0.2,0.1,0.3
	c0,0.1-0.1,0.1-0.2,0.2c-0.8,0.4-1.6,0.8-2.5,1.1c-0.1,0-0.2,0.1-0.3,0c-0.1-0.1-0.1-0.2-0.1-0.3c0-0.1,0.1-0.2,0.1-0.3l0.6-1
	c0-0.1,0.1-0.1,0.1-0.2c0-0.2-0.1-0.3-0.3-0.4c-0.1-0.1-0.3-0.3-0.3-0.4c0.1-0.1,0.2-0.2,0.2-0.3l0.3-0.3c0.3-0.4,0.7-0.7,1-1.1
	L20,6.5C20,6.4,20.1,6.3,20.2,6.3z"/>
<path id="Path_5579" class="st3" d="M14.6,5.1c0-0.3,0-0.6,0-0.8c0-0.3,0-0.7,0-1c0-0.2,0.1-0.3,0.3-0.3c0.4,0,0.9,0,1.3,0
	c0.2,0,0.3,0.2,0.2,0.4c-0.2,0.5-0.3,0.9-0.5,1.4c-0.1,0.3,0,0.4,0.3,0.4c0.5,0,0.7,0.1,0.4,0.7c-0.2,0.5-0.4,1-0.6,1.5
	C16,7.5,16,7.7,15.8,7.6c-0.2,0-0.2-0.2-0.2-0.3c0-0.2-0.1-0.5-0.1-0.7c0-0.3-0.1-0.4-0.4-0.4h-0.2c-0.2,0-0.3-0.1-0.3-0.3
	C14.6,5.7,14.6,5.4,14.6,5.1z"/>
<path id="Path_5577_00000132049464809943884660000016561446229015791529_" class="st4" d="M21.9,15.6C21.9,15.6,21.9,15.7,21.9,15.6
	c-0.2,0.1-0.3,0.1-0.4,0.1c-0.4-0.2-0.8-0.3-1.2-0.5c-0.1,0-0.1,0-0.2,0c-0.2,0-0.2,0.3-0.2,0.5s0,0.4-0.2,0.5c-0.1,0-0.1,0-0.2,0
	c-0.6-0.3-1.2-0.5-1.7-0.8c-0.2-0.1-0.4-0.3-0.2-0.5c0.2-0.2,0.6-0.2,0.8-0.2c0.2,0,0.3,0,0.4-0.2c0.1-0.2-0.1-0.7,0.2-0.7
	c0.1,0,0.2,0,0.3,0l0.5,0l0.9,0l0.9,0c0.1,0,0.2,0,0.2,0.1C22,13.9,22,14,22,14.2l0,1.2C22,15.4,22,15.5,21.9,15.6z"/>
<path id="Path_5578_00000045608716237234528230000007269528456543989644_" class="st4" d="M20.2,6.3c0.1,0,0.2,0.1,0.2,0.1
	c0.4,0.4,0.8,0.9,1.3,1.3c0.1,0.1,0.1,0.1,0.1,0.2c0,0.1-0.1,0.2-0.2,0.3l-1.6,0.8c-0.1,0.1-0.2,0.1-0.2,0.3c0,0.1,0.1,0.2,0.1,0.2
	l0.4,0.4c0.1,0.1,0.2,0.2,0.1,0.3c0,0.1-0.1,0.1-0.2,0.2c-0.8,0.4-1.6,0.8-2.5,1.1c-0.1,0-0.2,0.1-0.3,0c-0.1-0.1-0.1-0.2-0.1-0.3
	c0-0.1,0.1-0.2,0.1-0.3l0.6-1c0-0.1,0.1-0.1,0.1-0.2c0-0.2-0.1-0.3-0.3-0.4c-0.1-0.1-0.3-0.3-0.3-0.4c0.1-0.1,0.2-0.2,0.2-0.3
	l0.3-0.3c0.3-0.4,0.7-0.7,1-1.1L20,6.5C20,6.4,20.1,6.3,20.2,6.3z"/>
<path id="Path_5579_00000134957061917561346670000014842440580895042493_" class="st4" d="M14.6,5.1c0-0.3,0-0.6,0-0.8
	c0-0.3,0-0.7,0-1c0-0.2,0.1-0.3,0.3-0.3c0.4,0,0.9,0,1.3,0c0.2,0,0.3,0.2,0.2,0.4c-0.2,0.5-0.3,0.9-0.5,1.4c-0.1,0.3,0,0.4,0.3,0.4
	c0.5,0,0.7,0.1,0.4,0.7c-0.2,0.5-0.4,1-0.6,1.5C16,7.5,16,7.7,15.8,7.6c-0.2,0-0.2-0.2-0.2-0.3c0-0.2-0.1-0.5-0.1-0.7
	c0-0.3-0.1-0.4-0.4-0.4h-0.2c-0.2,0-0.3-0.1-0.3-0.3C14.6,5.7,14.6,5.4,14.6,5.1z"/>
</svg>
