<?xml version="1.0" encoding="utf-8"?>
<!-- Generator: Adobe Illustrator 27.3.1, SVG Export Plug-In . SVG Version: 6.00 Build 0)  -->
<svg version="1.1" id="Layer_1" xmlns="http://www.w3.org/2000/svg" xmlns:xlink="http://www.w3.org/1999/xlink" x="0px" y="0px"
	 viewBox="0 0 24 24" style="enable-background:new 0 0 24 24;" xml:space="preserve">
<style type="text/css">
	.st0{fill:none;}
	.st1{fill:#9473A5;}
	.st2{opacity:0.3;fill:#9473A5;}
	.st3{fill:#606060;}
	.st4{fill:#FFFFFF;}
	.st5{opacity:0.8;fill:#9473A5;}
</style>
<rect class="st0" width="24" height="24"/>
<path class="st1" d="M17.3,20.7h-2.7V16c0-0.7,0.6-1.3,1.3-1.3c0,0,0,0,0,0h1.3L17.3,20.7z"/>
<path class="st1" d="M17.7,22H15c-0.2,0-0.3-0.1-0.3-0.3v-1h2.7c0.4,0,0.7,0.3,0.7,0.7v0.3C18,21.9,17.8,22,17.7,22
	C17.7,22,17.7,22,17.7,22z"/>
<path class="st1" d="M12,14.7c-1.8,0-3.3,1.5-3.3,3.3v1.3H7.3v2C7.3,21.7,7.6,22,8,22c0,0,0,0,0,0h2c1.5,0,2.7-1.2,2.7-2.7v-4.7H12z
	"/>
<path class="st2" d="M4.3,21.9h0.3c0.4,0,0.7-0.3,0.7-0.7V19h-1C4.1,19,4,19.2,4,19.3l0,0v2.2C4,21.7,4.1,21.9,4.3,21.9
	C4.3,21.9,4.3,21.9,4.3,21.9z"/>
<path class="st2" d="M15.7,22H13c-0.2,0-0.3-0.1-0.3-0.3v-1h2.7c0.4,0,0.7,0.3,0.7,0.7v0.3C16,21.9,15.9,22,15.7,22z"/>
<path class="st2" d="M14.7,4c-2.9,0-5.3,2.4-5.3,5.3s2.4,5.3,5.3,5.3h2c1.8,0,3.3-1.5,3.3-3.3v-2C20,6.4,17.6,4,14.7,4z"/>
<path class="st1" d="M13.3,9.3v3.3c-0.9,0-1.7-0.7-1.7-1.7C11.7,10.1,12.4,9.3,13.3,9.3C13.3,9.3,13.3,9.3,13.3,9.3z"/>
<circle class="st3" cx="15.8" cy="9.8" r="0.5"/>
<circle class="st3" cx="18.5" cy="9.8" r="0.5"/>
<path class="st1" d="M17.6,12.3c-0.2,0-0.4-0.2-0.4-0.4c0,0,0,0,0,0v-1.2c0.5,0,0.9,0.4,0.9,0.9v0.3C18,12.1,17.8,12.3,17.6,12.3z"
	/>
<path class="st1" d="M15.7,11.7H15c-0.2,0-0.3-0.1-0.4-0.3c0-0.2,0.1-0.3,0.3-0.4c0,0,0,0,0,0h0.7c0.2,0,0.3,0.1,0.4,0.3
	C16,11.5,15.9,11.7,15.7,11.7C15.7,11.7,15.7,11.7,15.7,11.7z"/>
<path class="st1" d="M19.3,11.3c0,0.2,0.1,0.3,0.3,0.3H20c0-0.1,0-0.2,0-0.3V11h-0.3C19.5,11,19.3,11.2,19.3,11.3z"/>
<path class="st3" d="M16.4,5.9H16c-0.1,0-0.2-0.1-0.2-0.2c0-0.1,0.1-0.2,0.2-0.2c0,0,0,0,0,0h0.4c1.2,0,2.1-0.9,2.1-2.1
	c0-0.6-0.5-1.2-1.2-1.2c-0.5,0-0.8,0.4-0.8,0.8c0,0.3,0.2,0.5,0.5,0.5c0.1,0,0.2,0.1,0.2,0.2C17.1,3.9,17.1,4,17,4
	c-0.5,0-0.8-0.4-0.8-0.8c0-0.6,0.5-1.2,1.2-1.2c0.8,0,1.5,0.7,1.5,1.5C18.8,4.8,17.7,5.9,16.4,5.9z"/>
<path class="st4" d="M10,14.7c-1.8,0-3.3,1.5-3.3,3.3v1H5.3v2.3C5.3,21.7,5.6,22,6,22c0,0,0,0,0,0h2c1.5,0,2.7-1.2,2.7-2.7h2v1.3
	h2.7v-1.6c1.2-0.5,2-1.7,2-3.1v-1.3H10z"/>
<path class="st5" d="M10,14.7c-1.8,0-3.3,1.5-3.3,3.3v1H5.3v2.3C5.3,21.7,5.6,22,6,22c0,0,0,0,0,0h2c1.5,0,2.7-1.2,2.7-2.7h2v1.3
	h2.7v-1.6c1.2-0.5,2-1.7,2-3.1v-1.3H10z"/>
<circle class="st4" cx="16" cy="14.7" r="1.3"/>
</svg>
