<?xml version="1.0" encoding="utf-8"?>
<!-- Generator: Adobe Illustrator 27.3.1, SVG Export Plug-In . SVG Version: 6.00 Build 0)  -->
<svg version="1.1" id="Pulmonology" xmlns="http://www.w3.org/2000/svg" xmlns:xlink="http://www.w3.org/1999/xlink" x="0px"
	 y="0px" viewBox="0 0 24 24" style="enable-background:new 0 0 24 24;" xml:space="preserve">
<style type="text/css">
	.st0{opacity:0.15;fill:#9473A5;}
	.st1{fill:#9473A5;}
	.st2{opacity:0.3;}
	.st3{fill:#FFFFFF;}
	.st4{fill:none;}
</style>
<circle id="Ellipse_734" class="st0" cx="10" cy="10" r="10"/>
<path id="Path_3273" class="st1" d="M12.7,8.4v-6c0-0.2-0.2-0.4-0.4-0.4c0,0,0,0,0,0h-0.7c-0.2,0-0.4,0.2-0.4,0.4v6l-1.1,1l0.3,1.7
	l1.2-1.1c0.1-0.1,0.4-0.1,0.5,0l1.2,1.2l0.3-1.7L12.7,8.4z"/>
<g id="Group_1559">
	<path id="Path_3274" class="st1" d="M9.8,20.1c0.7-0.2,1.1-0.8,1.1-1.5v-8.1C10.7,9.1,10,7.8,9,6.8C8.7,6.5,8.2,6.5,7.9,6.7
		C6.4,7.9,2.4,11.7,2,20.8C2,21.5,2.5,22,3.2,22c0.1,0,0.3,0,0.4-0.1L9.8,20.1z"/>
	<path id="Path_3275" class="st1" d="M14.2,20.1c-0.7-0.2-1.1-0.8-1.1-1.5v-8.1C13.3,9.1,14,7.8,15,6.8c0.3-0.3,0.8-0.3,1.1-0.1
		c1.5,1.1,5.4,4.9,5.9,14c0,0.7-0.5,1.2-1.2,1.2c-0.1,0-0.3,0-0.4-0.1L14.2,20.1z"/>
</g>
<g id="Group_1560" class="st2">
	<path id="Path_3276" class="st3" d="M7.5,18.7c-0.3,0-0.7,0.2-0.9,0.4L3.1,22c0.2,0,0.3,0,0.5,0l6.2-1.9c0.7-0.2,1.1-0.8,1.1-1.5
		v-1.9C10.5,18.3,8.4,18.6,7.5,18.7z"/>
	<path id="Path_3277" class="st3" d="M2.6,21.5L5.5,19c0.3-0.2,0.3-0.7,0.1-1c0,0,0,0,0,0c-1.1-1.2-1.9-2.6-2.3-4.2
		c-0.7,2.2-1.1,4.5-1.2,6.9c0,0.4,0.2,0.7,0.4,0.9C2.5,21.6,2.6,21.5,2.6,21.5z"/>
	<path id="Path_3278" class="st3" d="M7.9,6.7c-1.5,1.1-5.4,4.9-5.9,14c0.9-0.6,2-1.6,2.1-2.2C5.1,9.8,9,6.8,9,6.8
		C8.7,6.5,8.2,6.5,7.9,6.7z"/>
</g>
<path id="Path_3279" class="st1" d="M3.2,13.9c-0.7,2.2-1.1,4.5-1.2,6.8c0.9-0.6,2-1.6,2.1-2.2c0.1-0.7,0.2-1.4,0.3-2
	C3.9,15.7,3.5,14.8,3.2,13.9z"/>
<g id="Group_1561" class="st2">
	<path id="Path_3280" class="st3" d="M14.2,20.1l1.5,0.5c-0.5-0.6-0.6-1.4-0.2-2.1c0.5-1.2-2.4-2.5-2.4-4.9v5.1
		C13.1,19.3,13.6,19.9,14.2,20.1z"/>
	<path id="Path_3281" class="st3" d="M20.7,13.5c-0.5,2.8-1.8,5.4-3.7,7.4l3.4,1c0.6,0.2,1.3-0.1,1.5-0.8c0-0.1,0.1-0.3,0.1-0.4
		C21.9,18.3,21.5,15.8,20.7,13.5z"/>
	<path id="Path_3282" class="st3" d="M14.5,18.5c0.2-0.3-0.2-8.7-0.3-10.7c-0.6,0.8-1,1.7-1,2.7v8.1c0,0.1,0,0.3,0.1,0.4
		C13.7,19,14.1,18.8,14.5,18.5z"/>
</g>
<path id="Path_3283" class="st1" d="M14.5,18.5c0.1-0.7,0.1-1.3,0-2c-0.8-0.8-1.3-1.8-1.4-3v5.1c0,0.1,0,0.3,0.1,0.4
	C13.7,19,14.1,18.8,14.5,18.5z"/>
<rect id="Rectangle_1281" class="st4" width="24" height="24"/>
</svg>
