<?xml version="1.0" encoding="utf-8"?>
<!-- Generator: Adobe Illustrator 27.3.1, SVG Export Plug-In . SVG Version: 6.00 Build 0)  -->
<svg version="1.1" id="Urology" xmlns="http://www.w3.org/2000/svg" xmlns:xlink="http://www.w3.org/1999/xlink" x="0px" y="0px"
	 viewBox="0 0 24 24" style="enable-background:new 0 0 24 24;" xml:space="preserve">
<style type="text/css">
	.st0{opacity:0.15;fill:#9473A5;}
	.st1{opacity:0.7;fill:#9473A5;}
	.st2{fill:#9473A5;}
	.st3{opacity:0.4;fill:#9473A5;}
	.st4{opacity:0.4;}
	.st5{fill:#FFFFFF;}
	.st6{fill:none;}
</style>
<circle id="Ellipse_742" class="st0" cx="10" cy="10" r="10"/>
<path id="Path_2476" class="st1" d="M7.8,11.1c0,0.1,0.1,0.3,0.1,0.4c0,0.1,0,0.3,0,0.4c-0.3,0.5-0.8,0-0.9-0.4
	c-0.1-0.5,0.3-0.9,0.3-1.3c0-0.4-0.5-0.5-0.8-0.4C6.3,9.9,6.1,10,6,10.1c-0.1,0.1-0.3,0.2-0.5,0.1c-0.1,0-0.1-0.1-0.1-0.2
	c-0.1-0.2-0.1-0.4,0-0.6C5.6,9.1,5.8,9,6.1,9C6.4,9,6.9,9,7,8.6c0.1-0.2,0-0.4-0.2-0.4c0,0,0,0,0,0c0,0-0.1,0-0.1,0
	c-0.4,0-1.1,0.5-1.3,0C5.2,8,5.2,7.8,5.2,7.7c0-0.2,0.1-0.3,0.2-0.4c0.3-0.2,0.7,0.1,1,0.1c0.2,0,0.3,0,0.5,0c0.3,0,0.5-0.2,0.6-0.5
	v0c0-0.2-0.1-0.4-0.1-0.6c-0.1-0.4,0-0.7,0.5-0.7c0.4,0,0.7,0.2,0.7,0.6c0,0.1,0,0.3,0,0.4c0,0.1,0,0.1,0,0.2l0,0
	c0.6-1.2,0.2-2.7-1-3.5C6.3,2.5,4.7,2.8,3.7,3.9C3.7,4,3.6,4,3.6,4.1C2.6,5.5,2,7.1,2,8.9c0,1.7,0.6,3.4,1.6,4.7
	c0.9,1.3,2.6,1.6,4,0.8c1.3-0.8,1.7-2.5,0.8-3.8c0,0,0,0,0,0c0,0,0,0,0-0.1l0,0c0,0,0,0,0,0l0,0C7.9,10.5,7.7,10.7,7.8,11.1z"/>
<path id="Path_2478" class="st2" d="M4.8,13.6c-1-1.4-1.6-3-1.6-4.7c0-1,0.2-2,0.6-2.9c0.2-0.5,0.5-1,0.8-1.5
	c0.3-0.4,0.6-0.7,0.9-0.9c0.2-0.2,0.8-0.6,1.1-0.6C6,2.8,5.3,2.9,4.7,3.1C4.3,3.3,4,3.6,3.7,3.9C3.7,4,3.6,4,3.6,4.1
	C2.6,5.5,2,7.1,2,8.8c0,1.7,0.6,3.4,1.6,4.7C4.1,14.4,5,14.8,6,14.8c0.2,0,0.4,0,0.6-0.1C5.9,14.6,5.2,14.2,4.8,13.6z"/>
<path id="Path_2481" class="st3" d="M8.3,9.5c0.3-0.4,0.3-0.9,0-1.3c-0.2-0.3-0.2-0.6,0-0.9c0,0,0-0.1,0.1-0.1
	c0.1-0.1,0.2-0.3,0.2-0.4l0,0c0-0.1,0-0.1,0-0.2c0-0.1,0-0.3,0-0.4c0-0.4-0.4-0.6-0.7-0.6c-0.5,0-0.6,0.3-0.5,0.7
	c0.1,0.2,0.1,0.4,0.1,0.6c0,0.3-0.2,0.5-0.5,0.5c0,0,0,0,0,0h0c-0.2,0-0.3,0-0.5,0c-0.3,0-0.7-0.2-1-0.1C5.3,7.4,5.2,7.5,5.2,7.7
	c0,0.1,0,0.3,0.1,0.4c0.2,0.5,1,0.1,1.3,0C6.8,8.1,7,8.3,7,8.5c0,0,0,0.1,0,0.1C6.9,9,6.4,9,6.1,9C5.8,9,5.6,9.1,5.4,9.3
	c-0.1,0.2-0.1,0.4,0,0.6c0,0.2,0.2,0.3,0.4,0.2c0.1,0,0.1-0.1,0.2-0.1C6.1,10,6.3,9.9,6.4,9.8c0.3-0.1,0.8,0,0.8,0.4
	c0,0.5-0.4,0.9-0.3,1.3c0.1,0.4,0.6,0.9,0.9,0.4c0.1-0.1,0.1-0.3,0-0.4c0-0.1-0.1-0.3-0.1-0.4c0-0.4,0.2-0.6,0.5-0.7l0,0
	C8.1,10.1,8.1,9.8,8.3,9.5z"/>
<path id="Path_2482" class="st2" d="M10.9,15.7v-4.6c0-1-0.8-1.8-1.9-1.8H8.4C8.2,9.3,8.1,9.2,8.1,9c0-0.1,0-0.2,0.1-0.2
	C8.1,8.7,8.1,8.7,8.1,8.6l0,0c0-0.2,0.1-0.3,0.3-0.3H9c0.7-0.1,1.2-0.7,1.2-1.4V2h0.6v4.8c0,0.8-0.5,1.6-1.3,1.9
	c1.1,0.2,2,1.2,2,2.4v4.6H10.9z"/>
<path id="Path_2476-2" class="st1" d="M16.2,11.1c0,0.1-0.1,0.3-0.1,0.4c0,0.1,0,0.3,0,0.4c0.3,0.5,0.8,0,0.9-0.4
	c0.1-0.5-0.3-0.9-0.3-1.3c0-0.4,0.5-0.5,0.8-0.4c0.2,0.1,0.3,0.2,0.4,0.3c0.1,0.1,0.3,0.2,0.5,0.1c0.1,0,0.1-0.1,0.1-0.2
	c0.1-0.2,0.1-0.4,0-0.6C18.4,9.1,18.2,9,17.9,9C17.6,9,17.1,9,17,8.6c-0.1-0.2,0-0.4,0.2-0.4c0,0,0,0,0,0c0,0,0.1,0,0.1,0
	c0.4,0,1.1,0.5,1.3,0c0.1-0.1,0.1-0.3,0.1-0.4c0-0.2-0.1-0.3-0.2-0.4c-0.3-0.2-0.7,0.1-1,0.1c-0.2,0-0.3,0-0.5,0
	c-0.3,0-0.5-0.2-0.6-0.5v0c0-0.2,0.1-0.4,0.1-0.6c0.1-0.4,0-0.7-0.5-0.7c-0.4,0-0.7,0.2-0.7,0.6c0,0.1,0,0.3,0,0.4
	c0,0.1,0,0.1,0,0.2l0,0c-0.6-1.2-0.2-2.7,1-3.5c1.2-0.8,2.9-0.6,3.8,0.6C20.3,4,20.4,4,20.4,4.1c1,1.4,1.6,3,1.6,4.7
	c0,1.7-0.6,3.4-1.6,4.7c-0.9,1.3-2.6,1.6-4,0.8c-1.3-0.8-1.7-2.5-0.9-3.8c0,0,0,0,0,0l0-0.1l0,0c0,0,0,0,0,0l0,0
	C16.1,10.5,16.3,10.7,16.2,11.1z"/>
<path id="Path_2478-2" class="st2" d="M19.2,13.6c1-1.4,1.6-3,1.6-4.7c0-1-0.2-2-0.6-2.9c-0.2-0.5-0.5-1-0.8-1.5
	c-0.3-0.4-0.6-0.7-0.9-0.9c-0.2-0.2-0.8-0.6-1.1-0.6c0.6-0.1,1.3-0.1,1.9,0.2c0.4,0.2,0.7,0.4,1,0.7C20.3,4,20.4,4,20.4,4.1
	c1,1.4,1.6,3,1.6,4.7c0,1.7-0.6,3.4-1.6,4.7c-0.5,0.8-1.4,1.2-2.4,1.2c-0.2,0-0.4,0-0.6-0.1C18.1,14.6,18.8,14.2,19.2,13.6z"/>
<path id="Path_2481-2" class="st3" d="M15.7,9.5c-0.3-0.4-0.3-0.9,0-1.3c0.2-0.3,0.2-0.6,0-0.9c0,0,0-0.1-0.1-0.1
	c-0.1-0.1-0.2-0.3-0.2-0.4l0,0c0-0.1,0-0.1,0-0.2c0-0.1,0-0.3,0-0.4c0-0.4,0.4-0.6,0.7-0.6c0.5,0,0.6,0.3,0.5,0.7
	c-0.1,0.2-0.1,0.4-0.1,0.6c0,0.3,0.2,0.5,0.5,0.5c0,0,0,0,0,0h0c0.2,0,0.3,0,0.5,0c0.3,0,0.7-0.2,1-0.1c0.1,0.1,0.2,0.3,0.2,0.4
	c0,0.1,0,0.3-0.1,0.4c-0.2,0.5-1,0.1-1.3,0c-0.2,0-0.4,0.1-0.4,0.3c0,0,0,0.1,0,0.1C17.1,9,17.6,9,17.9,9c0.3,0,0.5,0.1,0.7,0.3
	c0.1,0.2,0.1,0.4,0,0.6c0,0.2-0.2,0.3-0.4,0.2c-0.1,0-0.1-0.1-0.2-0.1c-0.1-0.1-0.3-0.2-0.4-0.3c-0.3-0.1-0.8,0-0.8,0.4
	c0,0.5,0.4,0.9,0.3,1.3c-0.1,0.4-0.6,0.9-0.9,0.4c-0.1-0.1-0.1-0.3,0-0.4c0-0.1,0.1-0.3,0.1-0.4c0-0.4-0.2-0.6-0.5-0.7l0,0
	C15.9,10.1,15.9,9.8,15.7,9.5z"/>
<path id="Path_2482-2" class="st2" d="M13.1,15.7v-4.6c0-1,0.8-1.8,1.9-1.8h0.6c0.2,0,0.3-0.1,0.3-0.3c0-0.1,0-0.2-0.1-0.2
	c0.1-0.1,0.1-0.1,0.1-0.2l0,0c0-0.2-0.1-0.3-0.3-0.3H15c-0.7-0.1-1.2-0.7-1.2-1.4V2h-0.6v4.8c0,0.8,0.5,1.6,1.3,1.9
	c-1.1,0.2-2,1.2-2,2.4v4.6H13.1z"/>
<g id="Group_1595">
	<path id="Path_3391" class="st2" d="M12.2,17.5h-0.4v-0.4h0.2c0.2,0,0.4-0.2,0.4-0.4v-1.1h0.6v1.1C13.1,17.1,12.7,17.5,12.2,17.5z"
		/>
</g>
<g id="Group_1596">
	<path id="Path_3392" class="st2" d="M11.8,17.5h0.4v-0.4h-0.2c-0.2,0-0.4-0.2-0.4-0.4v-1.1h-0.6v1.1C10.9,17.1,11.3,17.5,11.8,17.5
		z"/>
</g>
<g id="Group_1597">
	<path id="Path_3393" class="st2" d="M14.7,18.7c-0.1-1.3-1.3-2.3-2.6-2.2c-1.3-0.1-2.5,0.9-2.6,2.2c0,0.8,0.5,1.6,1.3,1.9
		c0.5,0.3,0.9,0.8,0.9,1.4v0h0.9v0c0-0.6,0.3-1.1,0.9-1.4C14.1,20.3,14.7,19.5,14.7,18.7z"/>
</g>
<g id="Group_1598">
	<ellipse id="Ellipse_622" class="st1" cx="12.1" cy="18.7" rx="2.6" ry="2.2"/>
</g>
<g id="Group_1599">
	<path id="Path_3394" class="st3" d="M13.4,17.4C13.4,17.4,13.4,17.4,13.4,17.4C13,17.1,12.5,17,12.1,17c-0.5,0-0.9,0.1-1.3,0.4
		c-0.1,0-0.1,0-0.2,0c0,0,0,0,0,0c0-0.1,0-0.1,0-0.2c0.4-0.3,0.9-0.4,1.4-0.4c0.5,0,1,0.1,1.4,0.4C13.5,17.2,13.6,17.3,13.4,17.4
		C13.5,17.4,13.5,17.4,13.4,17.4z"/>
</g>
<g id="Group_1600" class="st4">
	<path id="Path_3395" class="st5" d="M10.2,19.6c0.2,0.3,0.5,0.5,0.8,0.6c0.5,0.3,0.9,0.8,1.1,1.4h0.1c0.1-0.6,0.5-1.1,1.1-1.4
		c0.3-0.1,0.6-0.4,0.8-0.6H10.2z"/>
</g>
<g id="Group_1603">
	<g id="Group_1601">
		<ellipse id="Ellipse_623" class="st5" cx="11.8" cy="20.2" rx="0.3" ry="0.3"/>
	</g>
	<g id="Group_1602">
		<circle id="Ellipse_624" class="st5" cx="12.4" cy="19.8" r="0.1"/>
	</g>
</g>
<g id="Group_1604">
	<circle id="Ellipse_625" class="st5" cx="12.2" cy="20.8" r="0.1"/>
</g>
<rect id="Rectangle_1288" class="st6" width="24" height="24"/>
</svg>
